<svg xmlns="http://www.w3.org/2000/svg" width="141" height="106" viewBox="0 0 141 106">
  <g id="Group_1098" data-name="Group 1098" transform="translate(-781 -907)">
    <circle id="Ellipse_62" data-name="Ellipse 62" cx="32" cy="32" r="32" transform="translate(818 910)" fill="#0cb461" opacity="0.3"/>
    <text id="Biology" transform="translate(781 993)" fill="#0cb461" font-size="16" font-family="Quicksand-Medium, Quicksand" font-weight="500"><tspan x="-28.328" y="16">Biology</tspan></text>
    <g id="biology-2" data-name="biology" transform="translate(814.051 907)">
      <path id="Path_26" data-name="Path 26" d="M228.686,425.046a1.14,1.14,0,0,0-1.14,1.14v4.561a1.14,1.14,0,0,0,2.28,0v-4.561A1.14,1.14,0,0,0,228.686,425.046Z" transform="translate(-192.953 -360.436)" fill="#0cb461"/>
      <path id="Path_27" data-name="Path 27" d="M70.633,18.383l0-.016,0-.012c0-.006,0-.011-.007-.017q-.016-.049-.038-.1l-.014-.031q-.021-.043-.045-.084l-.018-.031c-.017-.028-.036-.054-.056-.08l-.018-.025a1.079,1.079,0,0,0-.181-.181l-.024-.018c-.026-.02-.054-.039-.081-.057l-.03-.018c-.028-.016-.056-.031-.085-.045L70,17.657c-.032-.014-.065-.027-.1-.038l-.016-.006-.01,0-.018-.005a17.757,17.757,0,0,0-22.47,21.637l-2.913,2.913V19.429s0-.006,0-.009,0-.029,0-.043a1.142,1.142,0,0,0-.085-.387L39.95,8.35l-.005-.012L36.782.748a1.14,1.14,0,0,0-2.1,0l-3.163,7.59-.005.012L27.076,18.99a1.137,1.137,0,0,0-.085.386c0,.015,0,.029,0,.044s0,.006,0,.009V55.836l-2.913-2.913A17.763,17.763,0,0,0,1.606,31.286l-.018.005-.01,0L1.56,31.3c-.033.011-.066.024-.1.038l-.031.014c-.029.014-.057.029-.085.045l-.03.018c-.028.017-.055.036-.081.056l-.024.018a1.147,1.147,0,0,0-.1.085,1.169,1.169,0,0,0-.085.1l-.018.025c-.02.026-.039.053-.056.08l-.018.031c-.016.028-.031.056-.045.084l-.015.031c-.014.032-.026.064-.037.1l-.007.017,0,.012,0,.016A17.763,17.763,0,0,0,22.463,54.537l4.525,4.525v11.3a1.14,1.14,0,0,0,2.28,0V21.125a7.192,7.192,0,0,0,1.816.233,7.06,7.06,0,0,0,3.505-.918V61.235a1.14,1.14,0,0,0,2.28,0V20.44a7.061,7.061,0,0,0,3.505.918,7.192,7.192,0,0,0,1.816-.233V70.356a1.14,1.14,0,0,0,2.28,0V45.379l4.525-4.525A17.759,17.759,0,0,0,70.633,18.383ZM17.9,37.276a15.426,15.426,0,0,1,4.276,13.745L4.153,33a15.567,15.567,0,0,1,2.8-.256A15.37,15.37,0,0,1,17.9,37.276Zm-.141,15.612A15.472,15.472,0,0,1,2.539,34.612l18.02,18.02A15.555,15.555,0,0,1,17.756,52.888ZM35.73,4.151l1.457,3.5H34.273Zm.934,13.1a1.14,1.14,0,0,0-1.867,0,4.492,4.492,0,0,1-3.712,1.823,4.892,4.892,0,0,1-1.479-.229l3.717-8.921h4.814l3.717,8.921a4.887,4.887,0,0,1-1.479.229A4.492,4.492,0,0,1,36.663,17.254ZM64.644,34.675A15.37,15.37,0,0,1,53.7,39.206a15.554,15.554,0,0,1-2.8-.256l7.4-7.4a1.14,1.14,0,0,0-1.612-1.612l-7.4,7.4a15.473,15.473,0,0,1,18.02-18.02l-7.4,7.4a1.14,1.14,0,1,0,1.612,1.612l7.4-7.4A15.426,15.426,0,0,1,64.644,34.675Z" transform="translate(0.003 -0.046)" fill="#0cb461"/>
    </g>
  </g>
</svg>
