<svg xmlns="http://www.w3.org/2000/svg" width="141" height="107.476" viewBox="0 0 141 107.476">
  <g id="Group_1100" data-name="Group 1100" transform="translate(-1222.634 -907)">
    <circle id="Ellipse_60" data-name="Ellipse 60" cx="32" cy="32" r="32" transform="translate(1261 910)" fill="#d061f1" opacity="0.3"/>
    <text id="Chemistry" transform="translate(1222.634 994.476)" fill="#d061f1" font-size="16" font-family="Quicksand-Medium, Quicksand" font-weight="500"><tspan x="-38.248" y="16">Chemistry</tspan></text>
    <g id="chemistry-2" data-name="chemistry" transform="translate(1256.907 907)">
      <path id="Path_19" data-name="Path 19" d="M231.21,141.98l-12.847-35.912V92.312h.385a1.156,1.156,0,1,0,0-2.312h-17.8a1.156,1.156,0,0,0,0,2.312h.385v13.756L188.487,141.98a4.68,4.68,0,0,0,4.637,6.584h33.448a4.68,4.68,0,0,0,4.637-6.584Zm-2.332,3.283a2.7,2.7,0,0,1-2.305.99H193.125a2.394,2.394,0,0,1-2.461-3.494l12.915-36.1a1.157,1.157,0,0,0,.067-.389V92.312h12.405v13.957a1.156,1.156,0,0,0,.068.389l12.915,36.1A2.7,2.7,0,0,1,228.878,145.263Z" transform="translate(-160.344 -77.336)" fill="#d061f1"/>
      <path id="Path_20" data-name="Path 20" d="M290.47,139.612a1.155,1.155,0,0,0,1.478-.7l2.174-6.077a1.158,1.158,0,0,0,.068-.389V121.156a1.156,1.156,0,1,0-2.312,0v11.091l-2.106,5.888A1.156,1.156,0,0,0,290.47,139.612Z" transform="translate(-245.85 -101.929)" fill="#d061f1"/>
      <path id="Path_21" data-name="Path 21" d="M250.479,278.143a1.156,1.156,0,0,0-2.177.779l3.143,8.785H223.705l8.121-22.7h11.5l3.421,9.564a1.156,1.156,0,1,0,2.177-.779l-3.7-10.33a1.156,1.156,0,0,0-1.088-.767H231.012a1.156,1.156,0,0,0-1.088.767l-8.949,25.014a1.156,1.156,0,0,0,1.088,1.545h31.023a1.156,1.156,0,0,0,1.088-1.545Z" transform="translate(-188.071 -223.414)" fill="#d061f1"/>
      <path id="Path_22" data-name="Path 22" d="M56.759,135.223l-2.053.917a17.316,17.316,0,0,0-7.462,6.376,1.156,1.156,0,1,0,1.937,1.262,15.011,15.011,0,0,1,6.467-5.527l2.738-1.223a1.156,1.156,0,0,0,.684-1.055V121.156a1.156,1.156,0,1,0-2.312,0Z" transform="translate(-39.806 -101.97)" fill="#d061f1"/>
      <path id="Path_23" data-name="Path 23" d="M111.168,41.559a1.156,1.156,0,0,0,1.156-1.156V31.156a1.156,1.156,0,1,0-2.312,0V40.4A1.156,1.156,0,0,0,111.168,41.559Z" transform="translate(-93.351 -25.377)" fill="#d061f1"/>
      <path id="Path_24" data-name="Path 24" d="M25.878,68.574a20.139,20.139,0,0,1-3.9.381,19.276,19.276,0,0,1-8-36.974,1.136,1.136,0,0,0,.684-1.038V2.273H29.3v28.67a1.136,1.136,0,0,0,.684,1.038,19.613,19.613,0,0,1,5.758,3.863,1.17,1.17,0,0,0,1.635-.014,1.123,1.123,0,0,0-.015-1.607,21.912,21.912,0,0,0-5.751-4V2.273h.385a1.146,1.146,0,0,0,1.156-1.137A1.146,1.146,0,0,0,31.992,0H11.957A1.146,1.146,0,0,0,10.8,1.137a1.146,1.146,0,0,0,1.156,1.137h.385V30.22a21.54,21.54,0,0,0,9.632,41.008,22.468,22.468,0,0,0,4.361-.426,1.137,1.137,0,0,0,.9-1.339A1.156,1.156,0,0,0,25.878,68.574Z" transform="translate(-0.013)" fill="#d061f1"/>
      <path id="Path_25" data-name="Path 25" d="M58.062,295a1.156,1.156,0,0,0,0-2.312H31.727a1.156,1.156,0,0,0-1.116.854,17.342,17.342,0,0,0,20.712,21.389,1.156,1.156,0,1,0-.53-2.25A15.023,15.023,0,0,1,32.638,295Z" transform="translate(-25.389 -248.788)" fill="#d061f1"/>
    </g>
  </g>
</svg>
