<svg xmlns="http://www.w3.org/2000/svg" width="141" height="103" viewBox="0 0 141 103">
  <g id="Group_1096" data-name="Group 1096" transform="translate(-339 -910)">
    <circle id="Ellipse_64" data-name="Ellipse 64" cx="32" cy="32" r="32" transform="translate(378 910)" fill="#ed4a2b" opacity="0.3"/>
    <text id="Literature" transform="translate(339 993)" fill="#ed4a2b" font-size="16" font-family="Quicksand-Medium, Quicksand" font-weight="500"><tspan x="-37.264" y="16">Literature</tspan></text>
    <g id="studies" transform="translate(372.239 911)">
      <path id="Path_1" data-name="Path 1" d="M70.976,33.861H67.611V30.4a1.154,1.154,0,0,0-1.154-1.154H40.487A6.444,6.444,0,0,0,36.065,31a6.445,6.445,0,0,0-4.421-1.75H5.674A1.154,1.154,0,0,0,4.52,30.4v3.462H1.154A1.154,1.154,0,0,0,0,35.016V75.54A5.777,5.777,0,0,0,5.771,81.31H27.986v8.756h-5a1.154,1.154,0,0,0,0,2.308h26.16a1.154,1.154,0,0,0,0-2.308h-5V84.773a1.154,1.154,0,1,0-2.308,0v5.294H30.295V81.31H66.36a5.777,5.777,0,0,0,5.771-5.771V35.016A1.154,1.154,0,0,0,70.976,33.861ZM69.822,36.17v32.8H67.611V36.17ZM6.828,31.553H31.644a4.147,4.147,0,0,1,3.46,1.858,1.154,1.154,0,0,0,1.922,0,4.146,4.146,0,0,1,3.46-1.858H65.3V68.968H6.828ZM4.52,36.17v32.8H2.308V36.17ZM66.36,79H5.771A3.466,3.466,0,0,1,2.308,75.54V71.276H69.822V75.54A3.466,3.466,0,0,1,66.36,79Z" transform="translate(0 -29.245)" fill="#ed4a2b"/>
      <path id="Path_2" data-name="Path 2" d="M228.024,105.093a1.154,1.154,0,0,0,1.154-1.154V75.822a1.154,1.154,0,1,0-2.308,0v28.117A1.154,1.154,0,0,0,228.024,105.093Z" transform="translate(-191.959 -67.678)" fill="#ed4a2b"/>
      <path id="Path_3" data-name="Path 3" d="M71.154,71.553H88.845a1.154,1.154,0,1,0,0-2.308H71.154a1.154,1.154,0,0,0,0,2.308Z" transform="translate(-59.228 -63.09)" fill="#ed4a2b"/>
      <path id="Path_4" data-name="Path 4" d="M71.154,107.181H88.845a1.154,1.154,0,1,0,0-2.308H71.154a1.154,1.154,0,0,0,0,2.308Z" transform="translate(-59.228 -93.235)" fill="#ed4a2b"/>
      <path id="Path_5" data-name="Path 5" d="M71.154,142.809H80a1.154,1.154,0,1,0,0-2.308H71.154a1.154,1.154,0,1,0,0,2.308Z" transform="translate(-59.228 -123.381)" fill="#ed4a2b"/>
      <path id="Path_6" data-name="Path 6" d="M71.154,178.437H88.845a1.154,1.154,0,0,0,0-2.308H71.154a1.154,1.154,0,0,0,0,2.308Z" transform="translate(-59.228 -153.526)" fill="#ed4a2b"/>
      <path id="Path_7" data-name="Path 7" d="M71.154,214.065H88.845a1.154,1.154,0,1,0,0-2.308H71.154a1.154,1.154,0,1,0,0,2.308Z" transform="translate(-59.228 -183.672)" fill="#ed4a2b"/>
      <path id="Path_8" data-name="Path 8" d="M71.154,249.693H80a1.154,1.154,0,1,0,0-2.308H71.154a1.154,1.154,0,1,0,0,2.308Z" transform="translate(-59.228 -213.817)" fill="#ed4a2b"/>
      <path id="Path_9" data-name="Path 9" d="M269.929,71.553H287.62a1.154,1.154,0,1,0,0-2.308H269.929a1.154,1.154,0,0,0,0,2.308Z" transform="translate(-227.415 -63.09)" fill="#ed4a2b"/>
      <path id="Path_10" data-name="Path 10" d="M269.929,107.181H287.62a1.154,1.154,0,1,0,0-2.308H269.929a1.154,1.154,0,0,0,0,2.308Z" transform="translate(-227.415 -93.235)" fill="#ed4a2b"/>
      <path id="Path_11" data-name="Path 11" d="M269.929,142.809h8.845a1.154,1.154,0,1,0,0-2.308h-8.845a1.154,1.154,0,1,0,0,2.308Z" transform="translate(-227.415 -123.381)" fill="#ed4a2b"/>
      <path id="Path_12" data-name="Path 12" d="M269.929,178.437H287.62a1.154,1.154,0,1,0,0-2.308H269.929a1.154,1.154,0,0,0,0,2.308Z" transform="translate(-227.415 -153.526)" fill="#ed4a2b"/>
      <path id="Path_13" data-name="Path 13" d="M269.929,214.065H287.62a1.154,1.154,0,1,0,0-2.308H269.929a1.154,1.154,0,1,0,0,2.308Z" transform="translate(-227.415 -183.672)" fill="#ed4a2b"/>
      <path id="Path_14" data-name="Path 14" d="M269.929,249.693h8.845a1.154,1.154,0,1,0,0-2.308h-8.845a1.154,1.154,0,1,0,0,2.308Z" transform="translate(-227.415 -213.817)" fill="#ed4a2b"/>
    </g>
  </g>
</svg>
