<svg xmlns="http://www.w3.org/2000/svg" width="141" height="103" viewBox="0 0 141 103">
  <g id="Group_1097" data-name="Group 1097" transform="translate(-559 -910)">
    <circle id="Ellipse_63" data-name="Ellipse 63" cx="32" cy="32" r="32" transform="translate(597 910)" fill="#feb546" opacity="0.3"/>
    <text id="History" transform="translate(559 993)" fill="#feb546" font-size="16" font-family="Quicksand-Medium, Quicksand" font-weight="500"><tspan x="-27.168" y="16">History</tspan></text>
    <g id="history-2" data-name="history" transform="translate(593.145 911)">
      <path id="Path_15" data-name="Path 15" d="M20,39.464v4.571a1.14,1.14,0,0,0,1.14,1.14h.38v6.459a1.14,1.14,0,0,0,1.14,1.14H82.694a1.14,1.14,0,0,0,1.14-1.14V45.174h.38a1.14,1.14,0,0,0,1.14-1.14V34.915a1.14,1.14,0,0,0-2.28,0v3.179l-29.257-5.64V28.836a1.14,1.14,0,0,0-2.28,0v3.618L22.28,38.094V34.915a1.14,1.14,0,1,0-2.28,0Zm61.554,11.03H23.8v-5.32H81.554ZM52.677,34.556l30.4,5.86v2.479H22.28V40.416Z" transform="translate(-16.96 -27.696)" fill="#feb546"/>
      <path id="Path_16" data-name="Path 16" d="M70.293,236.513h-1.9v-3.42a1.14,1.14,0,0,0-1.14-1.14h-3.42V209.975h.38a1.14,1.14,0,0,0,0-2.28h-7.6a1.14,1.14,0,0,0,0,2.28h.38v21.979H51.485V209.975h.38a1.14,1.14,0,0,0,0-2.28h-7.6a1.14,1.14,0,0,0,0,2.28h.38v21.979H39.136V209.975h.38a1.14,1.14,0,0,0,0-2.28h-7.6a1.14,1.14,0,0,0,0,2.28h.38v21.979H26.787V209.975h.38a1.14,1.14,0,0,0,0-2.28h-7.6a1.14,1.14,0,1,0,0,2.28h.38v21.979H14.439V209.975h.38a1.14,1.14,0,0,0,0-2.28h-7.6a1.14,1.14,0,0,0,0,2.28H7.6v21.979H4.18a1.14,1.14,0,0,0-1.14,1.14v3.42H1.14A1.14,1.14,0,0,0,0,237.653v4.56a1.14,1.14,0,0,0,1.14,1.14H70.293a1.14,1.14,0,0,0,1.14-1.14v-4.56A1.14,1.14,0,0,0,70.293,236.513ZM59.274,209.975h2.28v21.979h-2.28Zm-12.349,0h2.28v21.979h-2.28Zm-12.349,0h2.28v21.979h-2.28Zm-12.349,0h2.28v21.979h-2.28Zm-12.349,0h2.28v21.979H9.879Zm59.274,31.1H2.28v-2.28H13.3a1.14,1.14,0,0,0,0-2.28H5.319v-2.28H66.114v2.28H17.858a1.14,1.14,0,0,0,0,2.28h51.3Z" transform="translate(0 -180.338)" fill="#feb546"/>
    </g>
  </g>
</svg>
