<svg xmlns="http://www.w3.org/2000/svg" width="141" height="103" viewBox="0 0 141 103">
  <g id="Group_1095" data-name="Group 1095" transform="translate(-116 -910)">
    <circle id="Ellipse_65" data-name="Ellipse 65" cx="32" cy="32" r="32" transform="translate(154 910)" fill="#6163ff" opacity="0.3"/>
    <text id="Math" transform="translate(116 993)" fill="#6163ff" font-size="16" font-family="Quicksand-Medium, Quicksand" font-weight="500"><tspan x="-19.16" y="16">Math</tspan></text>
    <g id="blackboard" transform="translate(149.637 915)">
      <path id="Path_30" data-name="Path 30" d="M120.83,171.693a1.145,1.145,0,0,0-1.589.313l-3.249,4.842-3.249-4.842a1.145,1.145,0,1,0-1.9,1.276l3.772,5.621-3.772,5.621a1.145,1.145,0,1,0,1.9,1.276l3.249-4.842,3.249,4.842a1.145,1.145,0,0,0,1.9-1.276l-3.772-5.621,3.772-5.621A1.145,1.145,0,0,0,120.83,171.693Z" transform="translate(-93.757 -153.94)" fill="#6163ff"/>
      <path id="Path_31" data-name="Path 31" d="M299.5,171.689a1.145,1.145,0,0,0-1.586.325l-3.218,4.874-3.275-4.881a1.145,1.145,0,0,0-1.9,1.276l4.039,6.02v5.86a1.145,1.145,0,1,0,2.29,0V179.3l3.976-6.022A1.145,1.145,0,0,0,299.5,171.689Z" transform="translate(-245.161 -153.94)" fill="#6163ff"/>
      <path id="Path_32" data-name="Path 32" d="M207.8,186.424h-3.435v-3.435a1.145,1.145,0,1,0-2.29,0v3.435h-3.435a1.145,1.145,0,0,0,0,2.29h3.435v3.435a1.145,1.145,0,1,0,2.29,0v-3.435H207.8a1.145,1.145,0,0,0,0-2.29Z" transform="translate(-167.351 -162.706)" fill="#6163ff"/>
      <path id="Path_33" data-name="Path 33" d="M71.52,105.937c.012-.016.024-.031.034-.047s.021-.035.032-.052.018-.029.026-.044.017-.036.026-.054.015-.031.022-.048.013-.036.02-.054.013-.034.018-.052.01-.037.014-.055.009-.035.013-.054.007-.043.01-.065.005-.03.007-.046q.006-.057.006-.114V57.62q0-.057-.006-.114c0-.015,0-.03-.007-.046s-.006-.043-.01-.065-.009-.036-.013-.054-.009-.037-.014-.055-.012-.035-.018-.052-.012-.036-.02-.054-.015-.032-.022-.048-.016-.036-.026-.054-.017-.029-.026-.044-.02-.035-.032-.052-.023-.031-.034-.047-.021-.029-.032-.043-.046-.053-.071-.078-.062-.059-.089-.082l-.041-.031c-.016-.012-.032-.025-.049-.036l-.05-.03-.046-.027-.053-.025-.049-.023-.052-.019-.054-.019-.053-.014-.056-.014-.062-.009-.048-.007c-.038,0-.076-.006-.114-.006H1.145c-.038,0-.076,0-.114.006l-.048.007L.921,56.5l-.056.014-.053.014-.054.019-.052.019-.049.023-.053.025-.046.027c-.017.01-.034.019-.05.03s-.033.024-.049.036l-.041.031c-.027.023-.054.047-.079.072s-.058.061-.08.088-.022.029-.032.043-.024.031-.034.047-.021.035-.032.052-.018.029-.026.044-.018.036-.026.054-.015.031-.022.047-.013.036-.02.054-.013.034-.018.052-.01.037-.014.055-.009.035-.013.054-.007.043-.01.065-.005.03-.007.046c0,.038-.006.076-.006.114v47.634a1.141,1.141,0,0,0,.006.114c0,.015,0,.03.007.046s.006.044.01.065.009.036.013.054.009.037.014.055.012.035.018.052.012.036.02.054.015.032.022.047.016.036.026.054.017.029.026.044.02.035.032.052.023.031.034.047.021.029.032.043.046.053.071.078.062.059.089.082.027.02.041.03.032.025.049.036l.049.03.047.028.051.025.051.023.051.018.055.019.051.013.057.014.06.009.051.007c.038,0,.075.006.113.006H6.106v3.435a1.145,1.145,0,0,0,1.145,1.145H64.5a1.145,1.145,0,0,0,1.145-1.145V106.4H70.6c.038,0,.075,0,.113-.006l.051-.007.06-.009.057-.014.051-.013.055-.019.05-.018.051-.023.051-.025.047-.028c.016-.01.033-.019.049-.03s.033-.024.049-.036.027-.02.041-.03.054-.047.079-.072.058-.061.08-.088S71.509,105.952,71.52,105.937ZM61.061,104.11v-2.29h4.487l2.29,2.29Zm-11.449,0v-3.816h9.159v3.816Zm-45.7,0,2.29-2.29H47.322v2.29ZM59.916,98H48.467a1.145,1.145,0,0,0-1.145,1.145v.382H6.869V63.344H64.878V99.53H61.061v-.382A1.145,1.145,0,0,0,59.916,98Zm5.632-36.95H6.2l-2.29-2.29H67.838ZM4.58,62.673V100.2l-2.29,2.29V60.383ZM67.167,100.2V62.673l2.29-2.29V102.49Zm-3.816,8.489H8.4V106.4H63.351Z" transform="translate(0 -56.474)" fill="#6163ff"/>
    </g>
  </g>
</svg>
