<svg xmlns="http://www.w3.org/2000/svg" width="141" height="104.476" viewBox="0 0 141 104.476">
  <g id="Group_1099" data-name="Group 1099" transform="translate(-1001.422 -910)">
    <circle id="Ellipse_61" data-name="Ellipse 61" cx="32" cy="32" r="32" transform="translate(1040 910)" fill="#02ccc0" opacity="0.3"/>
    <text id="Physics" transform="translate(1001.422 994.476)" fill="#02ccc0" font-size="16" font-family="Quicksand-Medium, Quicksand" font-weight="500"><tspan x="-27.504" y="16">Physics</tspan></text>
    <g id="atom" transform="translate(1035.305 910)">
      <path id="Path_28" data-name="Path 28" d="M66.606,50.015a1.137,1.137,0,0,0-1.311,1.859C66.986,53.067,69,54.975,69,57.287c0,3.579-5,7.312-13.444,9.676a73.488,73.488,0,0,0-3.769-9.818,73.789,73.789,0,0,0,3.636-9.551,41.52,41.52,0,0,1,6.059,2.148,1.137,1.137,0,0,0,.939-2.072,43.7,43.7,0,0,0-6.39-2.265,45.111,45.111,0,0,0,1.07-5.484,3.409,3.409,0,0,0,.071-6.642c-.462-3.274-1.784-5.624-3.859-6.822-3.506-2.024-8.642-.547-14.463,4.16-1.088.88-2.18,1.856-3.268,2.916-1.1-1.074-2.2-2.062-3.3-2.952-5.82-4.707-10.957-6.185-14.463-4.16-2.091,1.207-3.418,3.584-3.869,6.9a3.411,3.411,0,0,0,.081,6.566,45.233,45.233,0,0,0,1.088,5.553,45.376,45.376,0,0,0-5.278,1.8A3.412,3.412,0,0,0,4.148,50.4C1.431,52.47,0,54.838,0,57.287c0,4.048,3.848,7.758,10.834,10.445,1.306.5,2.7.96,4.158,1.371a43.585,43.585,0,0,0-1.217,6.607,1.137,1.137,0,0,0,1.02,1.243c.038,0,.076.006.113.006a1.138,1.138,0,0,0,1.131-1.026,41.426,41.426,0,0,1,1.153-6.258,73.195,73.195,0,0,0,10.345,1.657,74.2,74.2,0,0,0,6.474,7.985c-6.305,6.2-12.082,8.7-15.2,6.9-2-1.156-2.647-3.856-2.834-5.918a1.137,1.137,0,0,0-2.266.206c.339,3.725,1.709,6.381,3.962,7.682a6.829,6.829,0,0,0,3.469.884c3.1,0,6.875-1.714,10.993-5.045,1.149-.929,2.3-1.965,3.449-3.094a45.291,45.291,0,0,0,4.334,3.781l0,.012a3.412,3.412,0,0,0,5.661,3.342,11.807,11.807,0,0,0,4.407.965,6.845,6.845,0,0,0,3.473-.881c3.506-2.024,4.794-7.211,3.628-14.605-.224-1.421-.534-2.895-.923-4.409,1.506-.42,2.938-.889,4.28-1.405,6.987-2.687,10.835-6.4,10.835-10.444C71.278,54.685,69.662,52.171,66.606,50.015ZM53.355,67.529A68.341,68.341,0,0,1,45.282,68.9q1.388-2.119,2.692-4.375c.9-1.558,1.744-3.129,2.53-4.7A69.119,69.119,0,0,1,53.355,67.529ZM24.989,51.256c1.195-2.069,2.42-4.011,3.661-5.823,2.277-.183,4.617-.279,6.988-.279,2.329,0,4.627.092,6.863.268q1.852,2.708,3.644,5.8c1.139,1.972,2.186,3.957,3.133,5.93-.985,2.078-2.08,4.168-3.275,6.238-1.186,2.054-2.4,3.982-3.634,5.782-2.147.161-4.393.248-6.731.248-2.378,0-4.662-.09-6.843-.257-1.271-1.849-2.5-3.792-3.664-5.809-1.187-2.057-2.276-4.133-3.256-6.2C22.819,55.189,23.859,53.214,24.989,51.256Zm-4.329,3.22a69.488,69.488,0,0,1-2.728-7.411,69.574,69.574,0,0,1,7.793-1.345q-1.4,2.13-2.707,4.4Q21.768,52.287,20.661,54.476ZM35.584,36.752A68.072,68.072,0,0,1,40.8,43.028c-1.7-.1-3.421-.148-5.162-.148-1.781,0-3.546.054-5.283.156A67.992,67.992,0,0,1,35.584,36.752ZM50.492,54.471q-1.113-2.2-2.376-4.388-1.3-2.254-2.694-4.378a69.808,69.808,0,0,1,7.8,1.33A69.264,69.264,0,0,1,50.492,54.471Zm6.856-17.31a1.143,1.143,0,0,1-.987.569,1.138,1.138,0,0,1-.983-1.707,1.142,1.142,0,0,1,.867-.561c.044,0,.082-.008.12-.008a1.119,1.119,0,0,1,.567.153,1.137,1.137,0,0,1,.416,1.554Zm-5.17-8.733c1.735,1,2.451,3.163,2.734,5.08a3.41,3.41,0,0,0-.255,6.04q.093.054.189.1a42.92,42.92,0,0,1-1.014,5.2,74.261,74.261,0,0,0-10.081-1.6,73.26,73.26,0,0,0-6.582-8.1C43.4,29.081,49.094,26.647,52.178,28.428ZM13.816,36.3a1.13,1.13,0,0,1,.53-.691,1.117,1.117,0,0,1,.561-.152h.023a1.142,1.142,0,0,1,.97.568,1.138,1.138,0,0,1-.983,1.707,1.143,1.143,0,0,1-.987-.569A1.129,1.129,0,0,1,13.816,36.3Zm2.485,3.41a3.409,3.409,0,0,0-.074-6.264c.285-1.913,1-4.056,2.729-5.052,3.09-1.784,8.8.661,15.045,6.749a73.138,73.138,0,0,0-6.6,8.117A74.052,74.052,0,0,0,17.32,44.876,43.14,43.14,0,0,1,16.3,39.708Zm-8.81,8.867a1.137,1.137,0,1,1-1.137,1.137A1.139,1.139,0,0,1,7.491,48.575ZM2.275,57.287c0-2.01,1.521-3.716,3.062-4.93a3.408,3.408,0,0,0,5.538-3.081,43.417,43.417,0,0,1,4.856-1.647,73.981,73.981,0,0,0,3.633,9.521A74.358,74.358,0,0,0,15.6,66.93C7.232,64.565,2.275,60.849,2.275,57.287ZM17.8,67.5a69.877,69.877,0,0,1,2.848-7.672c.781,1.558,1.619,3.116,2.511,4.661q1.305,2.261,2.709,4.4A68.019,68.019,0,0,1,17.8,67.5Zm17.836,4.193c1.7,0,3.383-.047,5.038-.139A68.4,68.4,0,0,1,35.6,77.689a69.77,69.77,0,0,1-5.1-6.139C32.188,71.645,33.9,71.694,35.639,71.694Zm8.144,14.9a1.121,1.121,0,0,1-.567.153,1.143,1.143,0,0,1-.987-.569,1.13,1.13,0,0,1-.114-.863,1.142,1.142,0,0,1,.13-.3L42.251,85c.008-.011.015-.023.023-.035a1.137,1.137,0,1,1,1.509,1.624ZM54.839,73.9c.995,6.306.077,10.782-2.519,12.281-1.721.994-3.929.549-5.722-.155a3.41,3.41,0,0,0-5.091-3.372q-.151.087-.29.188a43.211,43.211,0,0,1-4.042-3.535,73.566,73.566,0,0,0,6.445-7.964A73.473,73.473,0,0,0,53.962,69.7C54.331,71.146,54.626,72.549,54.839,73.9Z" transform="translate(0 -25.539)" fill="#02ccc0"/>
      <path id="Path_29" data-name="Path 29" d="M187.475,192.333a4.975,4.975,0,1,0-4.975-4.975A4.98,4.98,0,0,0,187.475,192.333Zm0-8.528a3.553,3.553,0,1,1-3.553,3.553A3.557,3.557,0,0,1,187.475,183.805Z" transform="translate(-151.836 -155.613)" fill="#02ccc0"/>
    </g>
  </g>
</svg>
