<svg xmlns="http://www.w3.org/2000/svg" width="141" height="104.476" viewBox="0 0 141 104.476">
  <g id="Group_1101" data-name="Group 1101" transform="translate(-1443.997 -910)">
    <circle id="Ellipse_59" data-name="Ellipse 59" cx="32" cy="32" r="32" transform="translate(1478 910)" fill="#ff67bd" opacity="0.3"/>
    <text id="Spanish" transform="translate(1443.997 994.476)" fill="#ff67bd" font-size="16" font-family="Quicksand-Medium, Quicksand" font-weight="500"><tspan x="-29.456" y="16">Spanish</tspan></text>
    <g id="Group_1007" data-name="Group 1007" transform="translate(1481.788 910)">
      <g id="Group_138" data-name="Group 138" transform="translate(15.435 4.116)">
        <g id="Group_137" data-name="Group 137" transform="translate(0)">
          <path id="Path_65" data-name="Path 65" d="M133.876,40.232h-1.852L129.491,32h-3.579l-2.532,8.232h-1.852V42.29h1.219L121.573,46.1l1.966.605,1.36-4.418h5.6l1.359,4.418,1.966-.605-1.173-3.813h1.219Zm-8.343,0,1.9-6.174h.537l1.9,6.174Z" transform="translate(-121.528 -32)" fill="#ff67bd"/>
        </g>
      </g>
      <g id="Group_140" data-name="Group 140" transform="translate(30.869 4.116)">
        <g id="Group_139" data-name="Group 139">
          <path id="Path_66" data-name="Path 66" d="M248.364,39.2a4.114,4.114,0,0,0-2.72-7.2h-4.116V46.406h4.116a4.114,4.114,0,0,0,2.72-7.2Zm-2.72,5.145h-2.058V40.232h2.058a2.058,2.058,0,0,1,0,4.116Zm0-6.174h-2.058V34.058h2.058a2.058,2.058,0,0,1,0,4.116Z" transform="translate(-241.528 -32)" fill="#ff67bd"/>
        </g>
      </g>
      <g id="Group_142" data-name="Group 142" transform="translate(41.159 4.116)">
        <g id="Group_141" data-name="Group 141">
          <path id="Path_67" data-name="Path 67" d="M328.731,34.058V32a7.2,7.2,0,1,0,0,14.406V44.348a5.145,5.145,0,1,1,0-10.29Z" transform="translate(-321.528 -32)" fill="#ff67bd"/>
        </g>
      </g>
      <g id="Group_144" data-name="Group 144" transform="translate(12.348 20.58)">
        <g id="Group_143" data-name="Group 143" transform="translate(0)">
          <path id="Path_68" data-name="Path 68" d="M97.528,160v18.522h39.1V160Zm37.043,16.464H99.586V162.058h34.985Z" transform="translate(-97.528 -160)" fill="#ff67bd"/>
        </g>
      </g>
      <g id="Group_146" data-name="Group 146" transform="translate(14.073 40.996)">
        <g id="Group_145" data-name="Group 145" transform="translate(0 0)">
          <rect id="Rectangle_94" data-name="Rectangle 94" width="36.735" height="2.533" transform="translate(0)" fill="#ff67bd"/>
        </g>
      </g>
      <g id="Group_148" data-name="Group 148" transform="translate(14.073 46.063)">
        <g id="Group_147" data-name="Group 147" transform="translate(0 0)">
          <rect id="Rectangle_95" data-name="Rectangle 95" width="36.735" height="1.267" transform="translate(0)" fill="#ff67bd"/>
        </g>
      </g>
      <g id="Group_150" data-name="Group 150" transform="translate(48.274 49.863)">
        <g id="Group_149" data-name="Group 149" transform="translate(0 0)">
          <rect id="Rectangle_96" data-name="Rectangle 96" width="2.533" height="2.533" transform="translate(0)" fill="#ff67bd"/>
        </g>
      </g>
      <g id="Group_152" data-name="Group 152" transform="translate(14.073 49.863)">
        <g id="Group_151" data-name="Group 151" transform="translate(0 0)">
          <rect id="Rectangle_97" data-name="Rectangle 97" width="32.934" height="2.533" transform="translate(0)" fill="#ff67bd"/>
        </g>
      </g>
      <g id="Group_154" data-name="Group 154">
        <g id="Group_153" data-name="Group 153">
          <path id="Path_69" data-name="Path 69" d="M64.932,4.116H57.093V0H6.673A5.151,5.151,0,0,0,1.528,5.145V58.652A5.151,5.151,0,0,0,6.673,63.8h50.42V61.739H54.006a3.087,3.087,0,0,1,0-6.174h3.087V14.406h7.839L62.359,9.261ZM49.917,61.739H6.673a3.087,3.087,0,1,1,0-6.174H49.917a5.041,5.041,0,0,0,0,6.174Zm5.118-8.232H11.818V49.391H9.76v4.116H6.673a5.124,5.124,0,0,0-3.087,1.031V5.145A3.091,3.091,0,0,1,6.673,2.058H9.76V47.333h2.058V2.058H55.035ZM61.6,12.348H57.093V6.174H61.6L60.058,9.261Z" transform="translate(-1.528)" fill="#ff67bd"/>
        </g>
      </g>
      <g id="Group_156" data-name="Group 156" transform="translate(9.006 57.463)">
        <g id="Group_155" data-name="Group 155" transform="translate(0 0)">
          <rect id="Rectangle_98" data-name="Rectangle 98" width="36.735" height="2.533" fill="#ff67bd"/>
        </g>
      </g>
      <g id="Group_158" data-name="Group 158" transform="translate(5.206 57.463)">
        <g id="Group_157" data-name="Group 157" transform="translate(0 0)">
          <rect id="Rectangle_99" data-name="Rectangle 99" width="1.267" height="2.533" transform="translate(0)" fill="#ff67bd"/>
        </g>
      </g>
    </g>
  </g>
</svg>
